{"accessors":[{"bufferView":0,"byteOffset":0,"componentType":5126,"count":268,"max":[0.015,0.015,0.015],"min":[-0.015,-0.015,-0.015],"type":"VEC3"},{"bufferView":0,"byteOffset":3216,"componentType":5126,"count":72,"max":[0.014696938456699,0.015,0.014696938456699],"min":[-0.014696938456699,0.015,-0.014696938456699],"type":"VEC3"},{"bufferView":0,"byteOffset":4080,"componentType":5126,"count":144,"max":[0.015,0.014696938456699,0.014696938456699],"min":[0.015,-0.014696938456690002,-0.014696938456699],"type":"VEC3"},{"bufferView":0,"byteOffset":5808,"componentType":5126,"count":252,"max":[0.014696938456699,-0.015,0.014696938456699],"min":[-0.014696938456699,-0.015,-0.014696938456699],"type":"VEC3"},{"bufferView":0,"byteOffset":8832,"componentType":5126,"count":108,"max":[0.014696938456699,0.014696938456699,-0.015],"min":[-0.014696938456699,-0.014696938456699,-0.015],"type":"VEC3"},{"bufferView":0,"byteOffset":10128,"componentType":5126,"count":180,"max":[-0.015,0.014696938456699,0.014696938456699],"min":[-0.015,-0.014696938456699,-0.014696938456699],"type":"VEC3"},{"bufferView":0,"byteOffset":12288,"componentType":5126,"count":216,"max":[0.014696938456699,0.014696938456699,0.015],"min":[-0.014696938456699,-0.014696938456699,0.015],"type":"VEC3"},{"bufferView":0,"byteOffset":14880,"componentType":5126,"count":74,"max":[0.0015,0.015,0.0015],"min":[-0.0015,0.014,-0.0015],"type":"VEC3"},{"bufferView":0,"byteOffset":15768,"componentType":5126,"count":74,"max":[0.015,-0.005,-0.005],"min":[0.014,-0.008,-0.008],"type":"VEC3"},{"bufferView":0,"byteOffset":16656,"componentType":5126,"count":74,"max":[0.015,0.0015,0.0015],"min":[0.014,-0.0015,-0.0015],"type":"VEC3"},{"bufferView":0,"byteOffset":17544,"componentType":5126,"count":74,"max":[0.015,0.008,0.008],"min":[0.014,0.005,0.005],"type":"VEC3"},{"bufferView":0,"byteOffset":18432,"componentType":5126,"count":74,"max":[-0.004999999999956,-0.014,0.008],"min":[-0.007999999999956,-0.015,0.005],"type":"VEC3"},{"bufferView":0,"byteOffset":19320,"componentType":5126,"count":74,"max":[0.008,-0.014,0.008],"min":[0.005,-0.015,0.005],"type":"VEC3"},{"bufferView":0,"byteOffset":20208,"componentType":5126,"count":74,"max":[-0.004999999999978,-0.014,0.0014999999999999478],"min":[-0.007999999999978,-0.015,-0.0015000000000000523],"type":"VEC3"},{"bufferView":0,"byteOffset":21096,"componentType":5126,"count":74,"max":[-0.005,-0.014,-0.005],"min":[-0.008,-0.015,-0.008],"type":"VEC3"},{"bufferView":0,"byteOffset":21984,"componentType":5126,"count":74,"max":[0.008,-0.014,0.0014999999999999999],"min":[0.005,-0.015,-0.0015000000000000003],"type":"VEC3"},{"bufferView":0,"byteOffset":22872,"componentType":5126,"count":74,"max":[0.008,-0.014,-0.005],"min":[0.005,-0.015,-0.008],"type":"VEC3"},{"bufferView":0,"byteOffset":23760,"componentType":5126,"count":74,"max":[-0.005000000000001,-0.005,-0.014],"min":[-0.008000000000001001,-0.008,-0.015],"type":"VEC3"},{"bufferView":0,"byteOffset":24648,"componentType":5126,"count":74,"max":[0.008000000000001001,0.008,-0.014],"min":[0.005000000000001,0.005,-0.015],"type":"VEC3"},{"bufferView":0,"byteOffset":25536,"componentType":5126,"count":74,"max":[-0.014,-0.005,-0.005],"min":[-0.015,-0.008,-0.008],"type":"VEC3"},{"bufferView":0,"byteOffset":26424,"componentType":5126,"count":74,"max":[-0.014,0.008,-0.005],"min":[-0.015,0.005,-0.008],"type":"VEC3"},{"bufferView":0,"byteOffset":27312,"componentType":5126,"count":74,"max":[-0.014,-0.005,0.008],"min":[-0.015,-0.008,0.005],"type":"VEC3"},{"bufferView":0,"byteOffset":28200,"componentType":5126,"count":74,"max":[-0.014,0.008,0.008],"min":[-0.015,0.005,0.005],"type":"VEC3"},{"bufferView":0,"byteOffset":29088,"componentType":5126,"count":74,"max":[-0.005,-0.005,0.015],"min":[-0.008,-0.008,0.014],"type":"VEC3"},{"bufferView":0,"byteOffset":29976,"componentType":5126,"count":74,"max":[-0.005,0.008,0.015],"min":[-0.008,0.005,0.014],"type":"VEC3"},{"bufferView":0,"byteOffset":30864,"componentType":5126,"count":74,"max":[0.008,-0.005,0.015],"min":[0.005,-0.008,0.014],"type":"VEC3"},{"bufferView":0,"byteOffset":31752,"componentType":5126,"count":74,"max":[0.0015,0.0015,0.015],"min":[-0.0015,-0.0015000000000000003,0.014],"type":"VEC3"},{"bufferView":0,"byteOffset":32640,"componentType":5126,"count":74,"max":[0.008,0.008,0.015],"min":[0.005,0.005,0.014],"type":"VEC3"},{"bufferView":0,"byteOffset":33528,"componentType":5126,"count":36,"max":[0.0015,0.014,0.0015],"min":[-0.0015,0.014,-0.0015],"type":"VEC3"},{"bufferView":0,"byteOffset":33960,"componentType":5126,"count":36,"max":[0.014,-0.005,-0.005],"min":[0.014,-0.008,-0.008],"type":"VEC3"},{"bufferView":0,"byteOffset":34392,"componentType":5126,"count":36,"max":[0.014,0.0015,0.0015],"min":[0.014,-0.0015,-0.0015],"type":"VEC3"},{"bufferView":0,"byteOffset":34824,"componentType":5126,"count":36,"max":[0.014,0.008,0.008],"min":[0.014,0.005,0.005],"type":"VEC3"},{"bufferView":0,"byteOffset":35256,"componentType":5126,"count":36,"max":[-0.004999999999956,-0.014,0.008],"min":[-0.007999999999956,-0.014,0.005],"type":"VEC3"},{"bufferView":0,"byteOffset":35688,"componentType":5126,"count":36,"max":[0.008,-0.014,0.008],"min":[0.005,-0.014,0.005],"type":"VEC3"},{"bufferView":0,"byteOffset":36120,"componentType":5126,"count":36,"max":[-0.004999999999978,-0.014,0.0014999999999999478],"min":[-0.007999999999978,-0.014,-0.0015000000000000523],"type":"VEC3"},{"bufferView":0,"byteOffset":36552,"componentType":5126,"count":36,"max":[-0.005,-0.014,-0.005],"min":[-0.008,-0.014,-0.008],"type":"VEC3"},{"bufferView":0,"byteOffset":36984,"componentType":5126,"count":36,"max":[0.008,-0.014,0.0014999999999999999],"min":[0.005,-0.014,-0.0015000000000000003],"type":"VEC3"},{"bufferView":0,"byteOffset":37416,"componentType":5126,"count":36,"max":[0.008,-0.014,-0.005],"min":[0.005,-0.014,-0.008],"type":"VEC3"},{"bufferView":0,"byteOffset":37848,"componentType":5126,"count":36,"max":[-0.005000000000001,-0.005,-0.014],"min":[-0.008000000000001001,-0.008,-0.014],"type":"VEC3"},{"bufferView":0,"byteOffset":38280,"componentType":5126,"count":36,"max":[0.008000000000001001,0.008,-0.014],"min":[0.005000000000001,0.005,-0.014],"type":"VEC3"},{"bufferView":0,"byteOffset":38712,"componentType":5126,"count":36,"max":[-0.014,-0.005,-0.005],"min":[-0.014,-0.008,-0.008],"type":"VEC3"},{"bufferView":0,"byteOffset":39144,"componentType":5126,"count":36,"max":[-0.014,0.008,-0.005],"min":[-0.014,0.005,-0.008],"type":"VEC3"},{"bufferView":0,"byteOffset":39576,"componentType":5126,"count":36,"max":[-0.014,-0.005,0.008],"min":[-0.014,-0.008,0.005],"type":"VEC3"},{"bufferView":0,"byteOffset":40008,"componentType":5126,"count":36,"max":[-0.014,0.008,0.008],"min":[-0.014,0.005,0.005],"type":"VEC3"},{"bufferView":0,"byteOffset":40440,"componentType":5126,"count":36,"max":[-0.005,-0.005,0.014],"min":[-0.008,-0.008,0.014],"type":"VEC3"},{"bufferView":0,"byteOffset":40872,"componentType":5126,"count":36,"max":[-0.005,0.008,0.014],"min":[-0.008,0.005,0.014],"type":"VEC3"},{"bufferView":0,"byteOffset":41304,"componentType":5126,"count":36,"max":[0.008,-0.005,0.014],"min":[0.005,-0.008,0.014],"type":"VEC3"},{"bufferView":0,"byteOffset":41736,"componentType":5126,"count":36,"max":[0.0015,0.0014999999999999999,0.014],"min":[-0.0015,-0.0015000000000000003,0.014],"type":"VEC3"},{"bufferView":0,"byteOffset":42168,"componentType":5126,"count":36,"max":[0.008,0.008,0.014],"min":[0.005,0.005,0.014],"type":"VEC3"},{"bufferView":1,"byteOffset":0,"componentType":5126,"count":268,"type":"VEC3"},{"bufferView":1,"byteOffset":3216,"componentType":5126,"count":72,"type":"VEC3"},{"bufferView":1,"byteOffset":4080,"componentType":5126,"count":144,"type":"VEC3"},{"bufferView":1,"byteOffset":5808,"componentType":5126,"count":252,"type":"VEC3"},{"bufferView":1,"byteOffset":8832,"componentType":5126,"count":108,"type":"VEC3"},{"bufferView":1,"byteOffset":10128,"componentType":5126,"count":180,"type":"VEC3"},{"bufferView":1,"byteOffset":12288,"componentType":5126,"count":216,"type":"VEC3"},{"bufferView":1,"byteOffset":14880,"componentType":5126,"count":74,"type":"VEC3"},{"bufferView":1,"byteOffset":15768,"componentType":5126,"count":74,"type":"VEC3"},{"bufferView":1,"byteOffset":16656,"componentType":5126,"count":74,"type":"VEC3"},{"bufferView":1,"byteOffset":17544,"componentType":5126,"count":74,"type":"VEC3"},{"bufferView":1,"byteOffset":18432,"componentType":5126,"count":74,"type":"VEC3"},{"bufferView":1,"byteOffset":19320,"componentType":5126,"count":74,"type":"VEC3"},{"bufferView":1,"byteOffset":20208,"componentType":5126,"count":74,"type":"VEC3"},{"bufferView":1,"byteOffset":21096,"componentType":5126,"count":74,"type":"VEC3"},{"bufferView":1,"byteOffset":21984,"componentType":5126,"count":74,"type":"VEC3"},{"bufferView":1,"byteOffset":22872,"componentType":5126,"count":74,"type":"VEC3"},{"bufferView":1,"byteOffset":23760,"componentType":5126,"count":74,"type":"VEC3"},{"bufferView":1,"byteOffset":24648,"componentType":5126,"count":74,"type":"VEC3"},{"bufferView":1,"byteOffset":25536,"componentType":5126,"count":74,"type":"VEC3"},{"bufferView":1,"byteOffset":26424,"componentType":5126,"count":74,"type":"VEC3"},{"bufferView":1,"byteOffset":27312,"componentType":5126,"count":74,"type":"VEC3"},{"bufferView":1,"byteOffset":28200,"componentType":5126,"count":74,"type":"VEC3"},{"bufferView":1,"byteOffset":29088,"componentType":5126,"count":74,"type":"VEC3"},{"bufferView":1,"byteOffset":29976,"componentType":5126,"count":74,"type":"VEC3"},{"bufferView":1,"byteOffset":30864,"componentType":5126,"count":74,"type":"VEC3"},{"bufferView":1,"byteOffset":31752,"componentType":5126,"count":74,"type":"VEC3"},{"bufferView":1,"byteOffset":32640,"componentType":5126,"count":74,"type":"VEC3"},{"bufferView":1,"byteOffset":33528,"componentType":5126,"count":36,"type":"VEC3"},{"bufferView":1,"byteOffset":33960,"componentType":5126,"count":36,"type":"VEC3"},{"bufferView":1,"byteOffset":34392,"componentType":5126,"count":36,"type":"VEC3"},{"bufferView":1,"byteOffset":34824,"componentType":5126,"count":36,"type":"VEC3"},{"bufferView":1,"byteOffset":35256,"componentType":5126,"count":36,"type":"VEC3"},{"bufferView":1,"byteOffset":35688,"componentType":5126,"count":36,"type":"VEC3"},{"bufferView":1,"byteOffset":36120,"componentType":5126,"count":36,"type":"VEC3"},{"bufferView":1,"byteOffset":36552,"componentType":5126,"count":36,"type":"VEC3"},{"bufferView":1,"byteOffset":36984,"componentType":5126,"count":36,"type":"VEC3"},{"bufferView":1,"byteOffset":37416,"componentType":5126,"count":36,"type":"VEC3"},{"bufferView":1,"byteOffset":37848,"componentType":5126,"count":36,"type":"VEC3"},{"bufferView":1,"byteOffset":38280,"componentType":5126,"count":36,"type":"VEC3"},{"bufferView":1,"byteOffset":38712,"componentType":5126,"count":36,"type":"VEC3"},{"bufferView":1,"byteOffset":39144,"componentType":5126,"count":36,"type":"VEC3"},{"bufferView":1,"byteOffset":39576,"componentType":5126,"count":36,"type":"VEC3"},{"bufferView":1,"byteOffset":40008,"componentType":5126,"count":36,"type":"VEC3"},{"bufferView":1,"byteOffset":40440,"componentType":5126,"count":36,"type":"VEC3"},{"bufferView":1,"byteOffset":40872,"componentType":5126,"count":36,"type":"VEC3"},{"bufferView":1,"byteOffset":41304,"componentType":5126,"count":36,"type":"VEC3"},{"bufferView":1,"byteOffset":41736,"componentType":5126,"count":36,"type":"VEC3"},{"bufferView":1,"byteOffset":42168,"componentType":5126,"count":36,"type":"VEC3"},{"bufferView":2,"byteOffset":0,"componentType":5123,"count":936,"type":"SCALAR"},{"bufferView":2,"byteOffset":1872,"componentType":5123,"count":216,"type":"SCALAR"},{"bufferView":2,"byteOffset":2304,"componentType":5123,"count":444,"type":"SCALAR"},{"bufferView":2,"byteOffset":3192,"componentType":5123,"count":786,"type":"SCALAR"},{"bufferView":2,"byteOffset":4764,"componentType":5123,"count":330,"type":"SCALAR"},{"bufferView":2,"byteOffset":5424,"componentType":5123,"count":558,"type":"SCALAR"},{"bufferView":2,"byteOffset":6540,"componentType":5123,"count":672,"type":"SCALAR"},{"bufferView":2,"byteOffset":7884,"componentType":5123,"count":216,"type":"SCALAR"},{"bufferView":2,"byteOffset":8316,"componentType":5123,"count":216,"type":"SCALAR"},{"bufferView":2,"byteOffset":8748,"componentType":5123,"count":216,"type":"SCALAR"},{"bufferView":2,"byteOffset":9180,"componentType":5123,"count":216,"type":"SCALAR"},{"bufferView":2,"byteOffset":9612,"componentType":5123,"count":216,"type":"SCALAR"},{"bufferView":2,"byteOffset":10044,"componentType":5123,"count":216,"type":"SCALAR"},{"bufferView":2,"byteOffset":10476,"componentType":5123,"count":216,"type":"SCALAR"},{"bufferView":2,"byteOffset":10908,"componentType":5123,"count":216,"type":"SCALAR"},{"bufferView":2,"byteOffset":11340,"componentType":5123,"count":216,"type":"SCALAR"},{"bufferView":2,"byteOffset":11772,"componentType":5123,"count":216,"type":"SCALAR"},{"bufferView":2,"byteOffset":12204,"componentType":5123,"count":216,"type":"SCALAR"},{"bufferView":2,"byteOffset":12636,"componentType":5123,"count":216,"type":"SCALAR"},{"bufferView":2,"byteOffset":13068,"componentType":5123,"count":216,"type":"SCALAR"},{"bufferView":2,"byteOffset":13500,"componentType":5123,"count":216,"type":"SCALAR"},{"bufferView":2,"byteOffset":13932,"componentType":5123,"count":216,"type":"SCALAR"},{"bufferView":2,"byteOffset":14364,"componentType":5123,"count":216,"type":"SCALAR"},{"bufferView":2,"byteOffset":14796,"componentType":5123,"count":216,"type":"SCALAR"},{"bufferView":2,"byteOffset":15228,"componentType":5123,"count":216,"type":"SCALAR"},{"bufferView":2,"byteOffset":15660,"componentType":5123,"count":216,"type":"SCALAR"},{"bufferView":2,"byteOffset":16092,"componentType":5123,"count":216,"type":"SCALAR"},{"bufferView":2,"byteOffset":16524,"componentType":5123,"count":216,"type":"SCALAR"},{"bufferView":2,"byteOffset":16956,"componentType":5123,"count":102,"type":"SCALAR"},{"bufferView":2,"byteOffset":17160,"componentType":5123,"count":102,"type":"SCALAR"},{"bufferView":2,"byteOffset":17364,"componentType":5123,"count":102,"type":"SCALAR"},{"bufferView":2,"byteOffset":17568,"componentType":5123,"count":102,"type":"SCALAR"},{"bufferView":2,"byteOffset":17772,"componentType":5123,"count":102,"type":"SCALAR"},{"bufferView":2,"byteOffset":17976,"componentType":5123,"count":102,"type":"SCALAR"},{"bufferView":2,"byteOffset":18180,"componentType":5123,"count":102,"type":"SCALAR"},{"bufferView":2,"byteOffset":18384,"componentType":5123,"count":102,"type":"SCALAR"},{"bufferView":2,"byteOffset":18588,"componentType":5123,"count":102,"type":"SCALAR"},{"bufferView":2,"byteOffset":18792,"componentType":5123,"count":102,"type":"SCALAR"},{"bufferView":2,"byteOffset":18996,"componentType":5123,"count":102,"type":"SCALAR"},{"bufferView":2,"byteOffset":19200,"componentType":5123,"count":102,"type":"SCALAR"},{"bufferView":2,"byteOffset":19404,"componentType":5123,"count":102,"type":"SCALAR"},{"bufferView":2,"byteOffset":19608,"componentType":5123,"count":102,"type":"SCALAR"},{"bufferView":2,"byteOffset":19812,"componentType":5123,"count":102,"type":"SCALAR"},{"bufferView":2,"byteOffset":20016,"componentType":5123,"count":102,"type":"SCALAR"},{"bufferView":2,"byteOffset":20220,"componentType":5123,"count":102,"type":"SCALAR"},{"bufferView":2,"byteOffset":20424,"componentType":5123,"count":102,"type":"SCALAR"},{"bufferView":2,"byteOffset":20628,"componentType":5123,"count":102,"type":"SCALAR"},{"bufferView":2,"byteOffset":20832,"componentType":5123,"count":102,"type":"SCALAR"},{"bufferView":2,"byteOffset":21036,"componentType":5123,"count":102,"type":"SCALAR"}],"asset":{"generator":"Open CASCADE Technology 7.6 [dev.opencascade.org]","version":"2.0","extras":{"Author":"","Originating system":"FreeCAD","Organization":"","Comments":"FreeCAD Model"}},"bufferViews":[{"buffer":0,"byteLength":42600,"byteOffset":0,"byteStride":12,"target":34962},{"buffer":0,"byteLength":42600,"byteOffset":42600,"byteStride":12,"target":34962},{"buffer":0,"byteLength":21240,"byteOffset":85200,"target":34963}],"buffers":[{"byteLength":106440,"uri":"DiceRoundColouredGray.bin"}],"materials":[{"name":"mat_0","pbrMetallicRoughness":{"baseColorFactor":[0.052860651165246966,0.052860651165246966,0.052860651165246966,1.0],"roughnessFactor":0.2121320366859436},"doubleSided":true},{"name":"mat_1","pbrMetallicRoughness":{"baseColorFactor":[0.4019778072834015,0.0,0.0,1.0],"roughnessFactor":0.2121320366859436},"doubleSided":true}],"meshes":[{"name":"Body001","primitives":[{"attributes":{"NORMAL":49,"POSITION":0},"indices":98,"material":0,"mode":4},{"attributes":{"NORMAL":50,"POSITION":1},"indices":99,"material":0,"mode":4},{"attributes":{"NORMAL":51,"POSITION":2},"indices":100,"material":0,"mode":4},{"attributes":{"NORMAL":52,"POSITION":3},"indices":101,"material":0,"mode":4},{"attributes":{"NORMAL":53,"POSITION":4},"indices":102,"material":0,"mode":4},{"attributes":{"NORMAL":54,"POSITION":5},"indices":103,"material":0,"mode":4},{"attributes":{"NORMAL":55,"POSITION":6},"indices":104,"material":0,"mode":4},{"attributes":{"NORMAL":56,"POSITION":7},"indices":105,"material":0,"mode":4},{"attributes":{"NORMAL":57,"POSITION":8},"indices":106,"material":0,"mode":4},{"attributes":{"NORMAL":58,"POSITION":9},"indices":107,"material":0,"mode":4},{"attributes":{"NORMAL":59,"POSITION":10},"indices":108,"material":0,"mode":4},{"attributes":{"NORMAL":60,"POSITION":11},"indices":109,"material":0,"mode":4},{"attributes":{"NORMAL":61,"POSITION":12},"indices":110,"material":0,"mode":4},{"attributes":{"NORMAL":62,"POSITION":13},"indices":111,"material":0,"mode":4},{"attributes":{"NORMAL":63,"POSITION":14},"indices":112,"material":0,"mode":4},{"attributes":{"NORMAL":64,"POSITION":15},"indices":113,"material":0,"mode":4},{"attributes":{"NORMAL":65,"POSITION":16},"indices":114,"material":0,"mode":4},{"attributes":{"NORMAL":66,"POSITION":17},"indices":115,"material":0,"mode":4},{"attributes":{"NORMAL":67,"POSITION":18},"indices":116,"material":0,"mode":4},{"attributes":{"NORMAL":68,"POSITION":19},"indices":117,"material":0,"mode":4},{"attributes":{"NORMAL":69,"POSITION":20},"indices":118,"material":0,"mode":4},{"attributes":{"NORMAL":70,"POSITION":21},"indices":119,"material":0,"mode":4},{"attributes":{"NORMAL":71,"POSITION":22},"indices":120,"material":0,"mode":4},{"attributes":{"NORMAL":72,"POSITION":23},"indices":121,"material":0,"mode":4},{"attributes":{"NORMAL":73,"POSITION":24},"indices":122,"material":0,"mode":4},{"attributes":{"NORMAL":74,"POSITION":25},"indices":123,"material":0,"mode":4},{"attributes":{"NORMAL":75,"POSITION":26},"indices":124,"material":0,"mode":4},{"attributes":{"NORMAL":76,"POSITION":27},"indices":125,"material":0,"mode":4},{"attributes":{"NORMAL":77,"POSITION":28},"indices":126,"material":1,"mode":4},{"attributes":{"NORMAL":78,"POSITION":29},"indices":127,"material":1,"mode":4},{"attributes":{"NORMAL":79,"POSITION":30},"indices":128,"material":1,"mode":4},{"attributes":{"NORMAL":80,"POSITION":31},"indices":129,"material":1,"mode":4},{"attributes":{"NORMAL":81,"POSITION":32},"indices":130,"material":1,"mode":4},{"attributes":{"NORMAL":82,"POSITION":33},"indices":131,"material":1,"mode":4},{"attributes":{"NORMAL":83,"POSITION":34},"indices":132,"material":1,"mode":4},{"attributes":{"NORMAL":84,"POSITION":35},"indices":133,"material":1,"mode":4},{"attributes":{"NORMAL":85,"POSITION":36},"indices":134,"material":1,"mode":4},{"attributes":{"NORMAL":86,"POSITION":37},"indices":135,"material":1,"mode":4},{"attributes":{"NORMAL":87,"POSITION":38},"indices":136,"material":1,"mode":4},{"attributes":{"NORMAL":88,"POSITION":39},"indices":137,"material":1,"mode":4},{"attributes":{"NORMAL":89,"POSITION":40},"indices":138,"material":1,"mode":4},{"attributes":{"NORMAL":90,"POSITION":41},"indices":139,"material":1,"mode":4},{"attributes":{"NORMAL":91,"POSITION":42},"indices":140,"material":1,"mode":4},{"attributes":{"NORMAL":92,"POSITION":43},"indices":141,"material":1,"mode":4},{"attributes":{"NORMAL":93,"POSITION":44},"indices":142,"material":1,"mode":4},{"attributes":{"NORMAL":94,"POSITION":45},"indices":143,"material":1,"mode":4},{"attributes":{"NORMAL":95,"POSITION":46},"indices":144,"material":1,"mode":4},{"attributes":{"NORMAL":96,"POSITION":47},"indices":145,"material":1,"mode":4},{"attributes":{"NORMAL":97,"POSITION":48},"indices":146,"material":1,"mode":4}]}],"nodes":[{"mesh":0,"name":"Body001"}],"scene":0,"scenes":[{"nodes":[0]}]}